<mxfile host="app.diagrams.net" agent="Mozilla/5.0 (Windows NT 10.0; Win64; x64) AppleWebKit/537.36 (KHTML, like Gecko) Chrome/133.0.0.0 Safari/537.36" version="26.0.11">
  <diagram name="Page-1" id="oMtZtmkEu2mck9Bh7wn8">
    <mxGraphModel dx="2876" dy="1111" grid="1" gridSize="10" guides="1" tooltips="1" connect="1" arrows="1" fold="1" page="1" pageScale="1" pageWidth="827" pageHeight="1169" math="0" shadow="0">
      <root>
        <mxCell id="0" />
        <mxCell id="1" parent="0" />
        <mxCell id="VP4pQxfJ7jZ9CIotBnkE-1" value="KORISNICI" style="shape=module;align=left;spacingLeft=20;align=center;verticalAlign=top;whiteSpace=wrap;html=1;" parent="1" vertex="1">
          <mxGeometry x="30" y="40" width="180" height="140" as="geometry" />
        </mxCell>
        <mxCell id="VP4pQxfJ7jZ9CIotBnkE-2" value="&amp;lt;&amp;lt;component&amp;gt;&amp;gt;&lt;div&gt;Korisnik&lt;/div&gt;" style="rounded=0;whiteSpace=wrap;html=1;" parent="1" vertex="1">
          <mxGeometry x="80" y="95" width="90" height="35" as="geometry" />
        </mxCell>
        <mxCell id="VP4pQxfJ7jZ9CIotBnkE-3" value="TRŽIŠTE" style="shape=module;align=left;spacingLeft=20;align=center;verticalAlign=top;whiteSpace=wrap;html=1;" parent="1" vertex="1">
          <mxGeometry x="400" y="32.5" width="300" height="180" as="geometry" />
        </mxCell>
        <mxCell id="VP4pQxfJ7jZ9CIotBnkE-4" value="" style="ellipse;fillColor=strokeColor;html=1;" parent="1" vertex="1">
          <mxGeometry x="295" y="97.5" width="30" height="25" as="geometry" />
        </mxCell>
        <mxCell id="VP4pQxfJ7jZ9CIotBnkE-5" value="" style="endArrow=none;html=1;rounded=0;exitX=1;exitY=0.5;exitDx=0;exitDy=0;entryX=0;entryY=0.5;entryDx=0;entryDy=0;" parent="1" source="VP4pQxfJ7jZ9CIotBnkE-1" target="VP4pQxfJ7jZ9CIotBnkE-4" edge="1">
          <mxGeometry width="50" height="50" relative="1" as="geometry">
            <mxPoint x="370" y="230" as="sourcePoint" />
            <mxPoint x="420" y="180" as="targetPoint" />
          </mxGeometry>
        </mxCell>
        <mxCell id="VP4pQxfJ7jZ9CIotBnkE-6" value="" style="endArrow=none;html=1;rounded=0;exitX=1;exitY=0.5;exitDx=0;exitDy=0;entryX=0.032;entryY=0.423;entryDx=0;entryDy=0;entryPerimeter=0;" parent="1" source="VP4pQxfJ7jZ9CIotBnkE-4" target="VP4pQxfJ7jZ9CIotBnkE-3" edge="1">
          <mxGeometry width="50" height="50" relative="1" as="geometry">
            <mxPoint x="370" y="230" as="sourcePoint" />
            <mxPoint x="420" y="180" as="targetPoint" />
          </mxGeometry>
        </mxCell>
        <mxCell id="VP4pQxfJ7jZ9CIotBnkE-7" value="Podaci o tržištu" style="text;html=1;align=center;verticalAlign=middle;resizable=0;points=[];autosize=1;strokeColor=none;fillColor=none;" parent="1" vertex="1">
          <mxGeometry x="255" y="65" width="110" height="30" as="geometry" />
        </mxCell>
        <mxCell id="VP4pQxfJ7jZ9CIotBnkE-47" style="edgeStyle=orthogonalEdgeStyle;shape=connector;rounded=0;orthogonalLoop=1;jettySize=auto;html=1;exitX=0.5;exitY=0;exitDx=0;exitDy=0;entryX=0.5;entryY=1;entryDx=0;entryDy=0;strokeColor=default;align=center;verticalAlign=middle;fontFamily=Helvetica;fontSize=11;fontColor=default;labelBackgroundColor=default;startFill=0;endArrow=classic;endFill=1;" parent="1" source="VP4pQxfJ7jZ9CIotBnkE-8" target="VP4pQxfJ7jZ9CIotBnkE-44" edge="1">
          <mxGeometry relative="1" as="geometry" />
        </mxCell>
        <mxCell id="VP4pQxfJ7jZ9CIotBnkE-8" value="&amp;lt;&amp;lt;component&amp;gt;&amp;gt;&lt;div&gt;Dionice&lt;/div&gt;" style="rounded=0;whiteSpace=wrap;html=1;" parent="1" vertex="1">
          <mxGeometry x="510" y="110" width="95" height="27.5" as="geometry" />
        </mxCell>
        <mxCell id="VP4pQxfJ7jZ9CIotBnkE-15" value="" style="ellipse;fillColor=strokeColor;html=1;" parent="1" vertex="1">
          <mxGeometry x="105" y="250" width="30" height="25" as="geometry" />
        </mxCell>
        <mxCell id="VP4pQxfJ7jZ9CIotBnkE-16" value="" style="endArrow=none;html=1;rounded=0;entryX=0.5;entryY=1;entryDx=0;entryDy=0;exitX=0.5;exitY=0;exitDx=0;exitDy=0;" parent="1" source="VP4pQxfJ7jZ9CIotBnkE-15" target="VP4pQxfJ7jZ9CIotBnkE-1" edge="1">
          <mxGeometry width="50" height="50" relative="1" as="geometry">
            <mxPoint x="360" y="270" as="sourcePoint" />
            <mxPoint x="410" y="220" as="targetPoint" />
          </mxGeometry>
        </mxCell>
        <mxCell id="VP4pQxfJ7jZ9CIotBnkE-17" value="" style="endArrow=none;html=1;rounded=0;entryX=0.5;entryY=1;entryDx=0;entryDy=0;" parent="1" target="VP4pQxfJ7jZ9CIotBnkE-15" edge="1">
          <mxGeometry width="50" height="50" relative="1" as="geometry">
            <mxPoint x="120" y="330" as="sourcePoint" />
            <mxPoint x="410" y="220" as="targetPoint" />
          </mxGeometry>
        </mxCell>
        <mxCell id="VP4pQxfJ7jZ9CIotBnkE-18" value="Podaci o portfelju" style="text;html=1;align=center;verticalAlign=middle;resizable=0;points=[];autosize=1;strokeColor=none;fillColor=none;" parent="1" vertex="1">
          <mxGeometry x="-10" y="245" width="120" height="30" as="geometry" />
        </mxCell>
        <mxCell id="VP4pQxfJ7jZ9CIotBnkE-19" value="PORTFELJ" style="shape=module;align=left;spacingLeft=20;align=center;verticalAlign=top;whiteSpace=wrap;html=1;" parent="1" vertex="1">
          <mxGeometry x="20" y="330" width="300" height="180" as="geometry" />
        </mxCell>
        <mxCell id="VP4pQxfJ7jZ9CIotBnkE-44" value="&amp;lt;&amp;lt;component&amp;gt;&amp;gt;&lt;div&gt;Pregled tržošta&lt;/div&gt;" style="rounded=0;whiteSpace=wrap;html=1;" parent="1" vertex="1">
          <mxGeometry x="510" y="70" width="95" height="27.5" as="geometry" />
        </mxCell>
        <mxCell id="VP4pQxfJ7jZ9CIotBnkE-50" style="shape=connector;rounded=0;orthogonalLoop=1;jettySize=auto;html=1;exitX=0.5;exitY=0;exitDx=0;exitDy=0;entryX=0.25;entryY=1;entryDx=0;entryDy=0;strokeColor=default;align=center;verticalAlign=middle;fontFamily=Helvetica;fontSize=11;fontColor=default;labelBackgroundColor=default;startFill=0;endArrow=classic;endFill=1;" parent="1" source="VP4pQxfJ7jZ9CIotBnkE-48" target="VP4pQxfJ7jZ9CIotBnkE-8" edge="1">
          <mxGeometry relative="1" as="geometry" />
        </mxCell>
        <mxCell id="VP4pQxfJ7jZ9CIotBnkE-48" value="&amp;lt;&amp;lt;component&amp;gt;&amp;gt;&lt;div&gt;Pregled dionica&lt;/div&gt;" style="rounded=0;whiteSpace=wrap;html=1;" parent="1" vertex="1">
          <mxGeometry x="440" y="152.5" width="95" height="27.5" as="geometry" />
        </mxCell>
        <mxCell id="VP4pQxfJ7jZ9CIotBnkE-52" style="edgeStyle=none;shape=connector;rounded=0;orthogonalLoop=1;jettySize=auto;html=1;exitX=0.5;exitY=0;exitDx=0;exitDy=0;entryX=0.75;entryY=1;entryDx=0;entryDy=0;strokeColor=default;align=center;verticalAlign=middle;fontFamily=Helvetica;fontSize=11;fontColor=default;labelBackgroundColor=default;startFill=0;endArrow=classic;endFill=1;" parent="1" source="VP4pQxfJ7jZ9CIotBnkE-49" target="VP4pQxfJ7jZ9CIotBnkE-8" edge="1">
          <mxGeometry relative="1" as="geometry" />
        </mxCell>
        <mxCell id="VP4pQxfJ7jZ9CIotBnkE-49" value="&amp;lt;&amp;lt;component&amp;gt;&amp;gt;&lt;div&gt;Ažuriranje dionica&lt;/div&gt;" style="rounded=0;whiteSpace=wrap;html=1;" parent="1" vertex="1">
          <mxGeometry x="565" y="150" width="105" height="27.5" as="geometry" />
        </mxCell>
        <mxCell id="VP4pQxfJ7jZ9CIotBnkE-53" value="&amp;lt;&amp;lt;component&amp;gt;&amp;gt;&lt;div&gt;Portfelj&lt;/div&gt;" style="rounded=0;whiteSpace=wrap;html=1;" parent="1" vertex="1">
          <mxGeometry x="125" y="402.5" width="90" height="35" as="geometry" />
        </mxCell>
        <mxCell id="VP4pQxfJ7jZ9CIotBnkE-56" style="edgeStyle=none;shape=connector;rounded=0;orthogonalLoop=1;jettySize=auto;html=1;exitX=0.5;exitY=0;exitDx=0;exitDy=0;entryX=0.25;entryY=1;entryDx=0;entryDy=0;strokeColor=default;align=center;verticalAlign=middle;fontFamily=Helvetica;fontSize=11;fontColor=default;labelBackgroundColor=default;startFill=0;endArrow=classic;endFill=1;" parent="1" source="VP4pQxfJ7jZ9CIotBnkE-54" target="VP4pQxfJ7jZ9CIotBnkE-53" edge="1">
          <mxGeometry relative="1" as="geometry" />
        </mxCell>
        <mxCell id="VP4pQxfJ7jZ9CIotBnkE-54" value="&amp;lt;&amp;lt;component&amp;gt;&amp;gt;&lt;div&gt;Pregled portfelja&lt;/div&gt;" style="rounded=0;whiteSpace=wrap;html=1;" parent="1" vertex="1">
          <mxGeometry x="70" y="450" width="90" height="35" as="geometry" />
        </mxCell>
        <mxCell id="VP4pQxfJ7jZ9CIotBnkE-57" style="edgeStyle=none;shape=connector;rounded=0;orthogonalLoop=1;jettySize=auto;html=1;exitX=0.5;exitY=0;exitDx=0;exitDy=0;entryX=0.75;entryY=1;entryDx=0;entryDy=0;strokeColor=default;align=center;verticalAlign=middle;fontFamily=Helvetica;fontSize=11;fontColor=default;labelBackgroundColor=default;startFill=0;endArrow=classic;endFill=1;" parent="1" source="VP4pQxfJ7jZ9CIotBnkE-55" target="VP4pQxfJ7jZ9CIotBnkE-53" edge="1">
          <mxGeometry relative="1" as="geometry" />
        </mxCell>
        <mxCell id="VP4pQxfJ7jZ9CIotBnkE-55" value="&amp;lt;&amp;lt;component&amp;gt;&amp;gt;&lt;div&gt;Upravljanje portfeljom&lt;/div&gt;" style="rounded=0;whiteSpace=wrap;html=1;" parent="1" vertex="1">
          <mxGeometry x="170" y="450" width="120" height="35" as="geometry" />
        </mxCell>
        <mxCell id="VP4pQxfJ7jZ9CIotBnkE-67" value="" style="group" parent="1" vertex="1" connectable="0">
          <mxGeometry x="25" y="640" width="300" height="180" as="geometry" />
        </mxCell>
        <mxCell id="VP4pQxfJ7jZ9CIotBnkE-58" value="TRANSAKCIJE" style="shape=module;align=left;spacingLeft=20;align=center;verticalAlign=top;whiteSpace=wrap;html=1;" parent="VP4pQxfJ7jZ9CIotBnkE-67" vertex="1">
          <mxGeometry width="300" height="180" as="geometry" />
        </mxCell>
        <mxCell id="VP4pQxfJ7jZ9CIotBnkE-59" value="&amp;lt;&amp;lt;component&amp;gt;&amp;gt;&lt;div&gt;Transakcije&lt;/div&gt;" style="rounded=0;whiteSpace=wrap;html=1;" parent="VP4pQxfJ7jZ9CIotBnkE-67" vertex="1">
          <mxGeometry x="120" y="90" width="90" height="35" as="geometry" />
        </mxCell>
        <mxCell id="VP4pQxfJ7jZ9CIotBnkE-64" style="edgeStyle=none;shape=connector;rounded=0;orthogonalLoop=1;jettySize=auto;html=1;exitX=0.5;exitY=0;exitDx=0;exitDy=0;entryX=0.25;entryY=1;entryDx=0;entryDy=0;strokeColor=default;align=center;verticalAlign=middle;fontFamily=Helvetica;fontSize=11;fontColor=default;labelBackgroundColor=default;startFill=0;endArrow=classic;endFill=1;" parent="VP4pQxfJ7jZ9CIotBnkE-67" source="VP4pQxfJ7jZ9CIotBnkE-60" target="VP4pQxfJ7jZ9CIotBnkE-59" edge="1">
          <mxGeometry relative="1" as="geometry" />
        </mxCell>
        <mxCell id="VP4pQxfJ7jZ9CIotBnkE-60" value="&amp;lt;&amp;lt;component&amp;gt;&amp;gt;&lt;div&gt;Kupovina dionica&lt;/div&gt;" style="rounded=0;whiteSpace=wrap;html=1;" parent="VP4pQxfJ7jZ9CIotBnkE-67" vertex="1">
          <mxGeometry x="40" y="140" width="100" height="35" as="geometry" />
        </mxCell>
        <mxCell id="VP4pQxfJ7jZ9CIotBnkE-65" style="edgeStyle=none;shape=connector;rounded=0;orthogonalLoop=1;jettySize=auto;html=1;exitX=0.5;exitY=0;exitDx=0;exitDy=0;entryX=0.75;entryY=1;entryDx=0;entryDy=0;strokeColor=default;align=center;verticalAlign=middle;fontFamily=Helvetica;fontSize=11;fontColor=default;labelBackgroundColor=default;startFill=0;endArrow=classic;endFill=1;" parent="VP4pQxfJ7jZ9CIotBnkE-67" source="VP4pQxfJ7jZ9CIotBnkE-61" target="VP4pQxfJ7jZ9CIotBnkE-59" edge="1">
          <mxGeometry relative="1" as="geometry" />
        </mxCell>
        <mxCell id="VP4pQxfJ7jZ9CIotBnkE-61" value="&amp;lt;&amp;lt;component&amp;gt;&amp;gt;&lt;div&gt;Prodaja dionica&lt;span style=&quot;color: rgba(0, 0, 0, 0); font-family: monospace; font-size: 0px; text-align: start; text-wrap-mode: nowrap; background-color: transparent;&quot;&gt;%3CmxGraphModel%3E%3Croot%3E%3CmxCell%20id%3D%220%22%2F%3E%3CmxCell%20id%3D%221%22%20parent%3D%220%22%2F%3E%3CmxCell%20id%3D%222%22%20value%3D%22%26amp%3Blt%3B%26amp%3Blt%3Bcomponent%26amp%3Bgt%3B%26amp%3Bgt%3B%26lt%3Bdiv%26gt%3BKorisnik%26lt%3B%2Fdiv%26gt%3B%22%20style%3D%22rounded%3D0%3BwhiteSpace%3Dwrap%3Bhtml%3D1%3B%22%20vertex%3D%221%22%20parent%3D%221%22%3E%3CmxGeometry%20x%3D%2280%22%20y%3D%2295%22%20width%3D%2290%22%20height%3D%2235%22%20as%3D%22geometry%22%2F%3E%3C%2FmxCell%3E%3C%2Froot%3E%3C%2FmxGraphModel%3E&lt;/span&gt;&lt;/div&gt;" style="rounded=0;whiteSpace=wrap;html=1;" parent="VP4pQxfJ7jZ9CIotBnkE-67" vertex="1">
          <mxGeometry x="170" y="140" width="90" height="35" as="geometry" />
        </mxCell>
        <mxCell id="VP4pQxfJ7jZ9CIotBnkE-63" style="edgeStyle=none;shape=connector;rounded=0;orthogonalLoop=1;jettySize=auto;html=1;exitX=0.5;exitY=1;exitDx=0;exitDy=0;entryX=0.5;entryY=0;entryDx=0;entryDy=0;strokeColor=default;align=center;verticalAlign=middle;fontFamily=Helvetica;fontSize=11;fontColor=default;labelBackgroundColor=default;startFill=0;endArrow=classic;endFill=1;" parent="VP4pQxfJ7jZ9CIotBnkE-67" source="VP4pQxfJ7jZ9CIotBnkE-62" target="VP4pQxfJ7jZ9CIotBnkE-59" edge="1">
          <mxGeometry relative="1" as="geometry" />
        </mxCell>
        <mxCell id="VP4pQxfJ7jZ9CIotBnkE-62" value="&amp;lt;&amp;lt;component&amp;gt;&amp;gt;&lt;div&gt;Izvršenje transakcija&lt;/div&gt;" style="rounded=0;whiteSpace=wrap;html=1;" parent="VP4pQxfJ7jZ9CIotBnkE-67" vertex="1">
          <mxGeometry x="45" y="50" width="115" height="35" as="geometry" />
        </mxCell>
        <mxCell id="VP4pQxfJ7jZ9CIotBnkE-71" value="" style="endArrow=none;html=1;rounded=0;entryX=0.5;entryY=1;entryDx=0;entryDy=0;exitX=0.5;exitY=0;exitDx=0;exitDy=0;" parent="1" edge="1">
          <mxGeometry width="50" height="50" relative="1" as="geometry">
            <mxPoint x="170" y="580" as="sourcePoint" />
            <mxPoint x="170" y="510" as="targetPoint" />
          </mxGeometry>
        </mxCell>
        <mxCell id="VP4pQxfJ7jZ9CIotBnkE-73" value="" style="ellipse;fillColor=strokeColor;html=1;" parent="1" vertex="1">
          <mxGeometry x="155" y="560" width="30" height="25" as="geometry" />
        </mxCell>
        <mxCell id="VP4pQxfJ7jZ9CIotBnkE-74" value="" style="endArrow=none;html=1;rounded=0;entryX=0.5;entryY=1;entryDx=0;entryDy=0;" parent="1" edge="1">
          <mxGeometry width="50" height="50" relative="1" as="geometry">
            <mxPoint x="169" y="640" as="sourcePoint" />
            <mxPoint x="169" y="585" as="targetPoint" />
          </mxGeometry>
        </mxCell>
        <mxCell id="VP4pQxfJ7jZ9CIotBnkE-76" value="&lt;font style=&quot;font-size: 12px;&quot;&gt;Podatci o transakcijama&lt;/font&gt;&lt;div&gt;&lt;br&gt;&lt;/div&gt;" style="text;html=1;align=center;verticalAlign=middle;resizable=0;points=[];autosize=1;strokeColor=none;fillColor=none;fontFamily=Helvetica;fontSize=11;fontColor=default;labelBackgroundColor=default;" parent="1" vertex="1">
          <mxGeometry x="180" y="565" width="150" height="40" as="geometry" />
        </mxCell>
        <mxCell id="VP4pQxfJ7jZ9CIotBnkE-77" value="" style="group" parent="1" vertex="1" connectable="0">
          <mxGeometry x="-480" y="20" width="350" height="180" as="geometry" />
        </mxCell>
        <mxCell id="VP4pQxfJ7jZ9CIotBnkE-27" value="ADMINISTRACIJA" style="shape=module;align=left;spacingLeft=20;align=center;verticalAlign=top;whiteSpace=wrap;html=1;" parent="VP4pQxfJ7jZ9CIotBnkE-77" vertex="1">
          <mxGeometry width="350" height="180" as="geometry" />
        </mxCell>
        <mxCell id="VP4pQxfJ7jZ9CIotBnkE-33" value="&amp;lt;&amp;lt;component&amp;gt;&amp;gt;&lt;div&gt;Administrator&lt;/div&gt;" style="rounded=0;whiteSpace=wrap;html=1;" parent="VP4pQxfJ7jZ9CIotBnkE-77" vertex="1">
          <mxGeometry x="135" y="85" width="95" height="27.5" as="geometry" />
        </mxCell>
        <mxCell id="VP4pQxfJ7jZ9CIotBnkE-35" value="&lt;font style=&quot;font-size: 8px;&quot;&gt;&amp;lt;&amp;lt;&lt;/font&gt;&lt;font style=&quot;font-size: 8px;&quot;&gt;component&amp;gt;&amp;gt;&lt;/font&gt;&lt;div&gt;&lt;font style=&quot;font-size: 8px;&quot;&gt;Upravljanje korisnicima&lt;/font&gt;&lt;/div&gt;" style="rounded=0;whiteSpace=wrap;html=1;" parent="VP4pQxfJ7jZ9CIotBnkE-77" vertex="1">
          <mxGeometry x="20" y="57.5" width="95" height="27.5" as="geometry" />
        </mxCell>
        <mxCell id="VP4pQxfJ7jZ9CIotBnkE-38" value="&lt;font style=&quot;font-size: 8px;&quot;&gt;&amp;lt;&amp;lt;&lt;/font&gt;&lt;font style=&quot;font-size: 8px;&quot;&gt;component&amp;gt;&amp;gt;&lt;/font&gt;&lt;div&gt;&lt;font style=&quot;font-size: 8px;&quot;&gt;Generiranje izvještaja&lt;/font&gt;&lt;/div&gt;" style="rounded=0;whiteSpace=wrap;html=1;" parent="VP4pQxfJ7jZ9CIotBnkE-77" vertex="1">
          <mxGeometry x="250" y="57.5" width="95" height="27.5" as="geometry" />
        </mxCell>
        <mxCell id="VP4pQxfJ7jZ9CIotBnkE-40" value="" style="endArrow=classic;html=1;rounded=0;exitX=0.5;exitY=1;exitDx=0;exitDy=0;entryX=0.001;entryY=0.623;entryDx=0;entryDy=0;entryPerimeter=0;" parent="VP4pQxfJ7jZ9CIotBnkE-77" source="VP4pQxfJ7jZ9CIotBnkE-35" target="VP4pQxfJ7jZ9CIotBnkE-33" edge="1">
          <mxGeometry width="50" height="50" relative="1" as="geometry">
            <mxPoint x="100" y="130" as="sourcePoint" />
            <mxPoint x="150" y="80" as="targetPoint" />
          </mxGeometry>
        </mxCell>
        <mxCell id="VP4pQxfJ7jZ9CIotBnkE-43" value="" style="endArrow=classic;html=1;rounded=0;exitX=0.5;exitY=1;exitDx=0;exitDy=0;entryX=1;entryY=0.5;entryDx=0;entryDy=0;" parent="VP4pQxfJ7jZ9CIotBnkE-77" source="VP4pQxfJ7jZ9CIotBnkE-38" target="VP4pQxfJ7jZ9CIotBnkE-33" edge="1">
          <mxGeometry width="50" height="50" relative="1" as="geometry">
            <mxPoint x="100" y="130" as="sourcePoint" />
            <mxPoint x="150" y="80" as="targetPoint" />
          </mxGeometry>
        </mxCell>
        <mxCell id="VP4pQxfJ7jZ9CIotBnkE-78" style="edgeStyle=none;shape=connector;rounded=0;orthogonalLoop=1;jettySize=auto;html=1;exitX=1;exitY=0.5;exitDx=0;exitDy=0;entryX=0;entryY=0.5;entryDx=10;entryDy=0;entryPerimeter=0;strokeColor=default;align=center;verticalAlign=middle;fontFamily=Helvetica;fontSize=11;fontColor=default;labelBackgroundColor=default;startFill=0;endArrow=none;endFill=1;" parent="1" source="VP4pQxfJ7jZ9CIotBnkE-79" target="VP4pQxfJ7jZ9CIotBnkE-1" edge="1">
          <mxGeometry relative="1" as="geometry" />
        </mxCell>
        <mxCell id="VP4pQxfJ7jZ9CIotBnkE-80" value="" style="edgeStyle=none;shape=connector;rounded=0;orthogonalLoop=1;jettySize=auto;html=1;exitX=1;exitY=0.5;exitDx=0;exitDy=0;entryX=0;entryY=0.5;entryDx=10;entryDy=0;entryPerimeter=0;strokeColor=default;align=center;verticalAlign=middle;fontFamily=Helvetica;fontSize=11;fontColor=default;labelBackgroundColor=default;startFill=0;endArrow=none;endFill=1;" parent="1" source="VP4pQxfJ7jZ9CIotBnkE-27" target="VP4pQxfJ7jZ9CIotBnkE-79" edge="1">
          <mxGeometry relative="1" as="geometry">
            <mxPoint x="-130" y="110" as="sourcePoint" />
            <mxPoint x="40" y="110" as="targetPoint" />
          </mxGeometry>
        </mxCell>
        <mxCell id="VP4pQxfJ7jZ9CIotBnkE-79" value="" style="ellipse;fillColor=strokeColor;html=1;" parent="1" vertex="1">
          <mxGeometry x="-60" y="97.5" width="30" height="25" as="geometry" />
        </mxCell>
        <mxCell id="VP4pQxfJ7jZ9CIotBnkE-81" value="Podatci o korisnicima" style="text;html=1;align=center;verticalAlign=middle;resizable=0;points=[];autosize=1;strokeColor=none;fillColor=none;fontFamily=Helvetica;fontSize=11;fontColor=default;labelBackgroundColor=default;" parent="1" vertex="1">
          <mxGeometry x="-125" y="58" width="130" height="30" as="geometry" />
        </mxCell>
      </root>
    </mxGraphModel>
  </diagram>
</mxfile>
